<svg id="Layer" height="300" viewBox="0 0 24 24" width="300" xmlns="http://www.w3.org/2000/svg" version="1.1" xmlns:xlink="http://www.w3.org/1999/xlink" xmlns:svgjs="http://svgjs.dev/svgjs"><g width="100%" height="100%" transform="matrix(1,0,0,1,0,0)"><path id="compass" d="m12 1.25a10.75 10.75 0 1 0 10.75 10.75 10.762 10.762 0 0 0 -10.75-10.75zm0 20a9.25 9.25 0 1 1 9.25-9.25 9.26 9.26 0 0 1 -9.25 9.25zm3.355-14.878-4.855 1.889a3.88 3.88 0 0 0 -2.2 2.189l-1.929 4.9a1.76 1.76 0 0 0 1.629 2.401 1.779 1.779 0 0 0 .669-.132l4.878-1.974a3.89 3.89 0 0 0 2.143-2.152l1.932-4.833a1.755 1.755 0 0 0 -2.267-2.288zm.874 1.728-1.929 4.837a2.379 2.379 0 0 1 -1.312 1.317l-4.888 1.975a.256.256 0 0 1 -.333-.331l1.933-4.898a2.382 2.382 0 0 1 1.346-1.342l4.854-1.888a.24.24 0 0 1 .274.058.245.245 0 0 1 .055.272zm-3.309 3.52a1 1 0 0 1 .08.38 1 1 0 0 1 -1.71.71l-.12-.15a.757.757 0 0 1 -.09-.18.636.636 0 0 1 -.06-.18 1.5 1.5 0 0 1 -.02-.2 1.052 1.052 0 0 1 .29-.71 1.017 1.017 0 0 1 1.09-.21.9.9 0 0 1 .54.54z" fill="#fffcfc" fill-opacity="1" data-original-color="#000000ff" stroke="none" stroke-opacity="1"/></g></svg>