<svg xmlns="http://www.w3.org/2000/svg" xmlns:xlink="http://www.w3.org/1999/xlink" version="1.1" id="Capa_1" x="0px" y="0px" viewBox="0 0 512 512" style="enable-background:new 0 0 512 512;" xml:space="preserve" width="300" height="300" xmlns:svgjs="http://svgjs.dev/svgjs"><g width="100%" height="100%" transform="matrix(1,0,0,1,0,0)"><g id="Speech_Bubble_34_">
	<path style="stroke-linecap: round; stroke-linejoin: round; stroke-miterlimit: 10;" d="&#10;&#9;&#9;M332,56.001H180c-88.367,0-160,71.633-160,160c0,88.364,71.633,160,160,160h32c22.092,0,40,17.908,40,40v39.998&#10;&#9;&#9;c165.959-105.588,238.96-132.212,239.988-237.72c0.007-0.757,0.012-1.516,0.012-2.278C492,127.635,420.367,56.001,332,56.001z" fill="none" fill-opacity="1" stroke="#ffffff" stroke-opacity="1" data-original-stroke-color="#000000ff" stroke-width="40" data-original-stroke-width="40"/>
	
		<line style="stroke-linecap: round; stroke-linejoin: round; stroke-miterlimit: 10;" x1="180" y1="176.001" x2="332" y2="176.001" fill="none" fill-opacity="1" stroke="#ffffff" stroke-opacity="1" data-original-stroke-color="#000000ff" stroke-width="40" data-original-stroke-width="40"/>
	
		<line style="stroke-linecap: round; stroke-linejoin: round; stroke-miterlimit: 10;" x1="332" y1="256.001" x2="180" y2="256.001" fill="none" fill-opacity="1" stroke="#ffffff" stroke-opacity="1" data-original-stroke-color="#000000ff" stroke-width="40" data-original-stroke-width="40"/>
</g></g></svg>