<svg id="Layer_1" enable-background="new 0 0 26 26" height="300" viewBox="0 0 26 26" width="300" xmlns="http://www.w3.org/2000/svg" version="1.1" xmlns:xlink="http://www.w3.org/1999/xlink" xmlns:svgjs="http://svgjs.dev/svgjs"><g width="100%" height="100%" transform="matrix(1,0,0,1,0,0)"><g id="_x36_49"><path d="m1.4301758 4.8300781v14.7900391c0 2.1123047 1.7128906 3.8300781 3.8193359 3.8300781h8.9130859c1.1374512.9995117 2.5844727 1.5498047 4.1269532 1.5498047 3.4628906 0 6.2802734-2.8125 6.2802734-6.2705078 0-2.9559326-2.0085449-5.4343262-4.7597656-6.0910645v-7.8083496c0-2.1123047-1.7138672-3.8300781-3.8203125-3.8300781h-10.7402344c-2.1064453 0-3.8193359 1.7177734-3.8193359 3.8300781zm21.1396484 13.8994141c0 2.3544922-1.9199219 4.2705078-4.2802734 4.2705078-2.281456 0-4.2900391-1.8377743-4.2900391-4.2705078 0-2.3652344 1.9248047-4.2900391 4.2900391-4.2900391 2.3180752 0 4.2802734 1.85849 4.2802734 4.2900391zm-19.1396484-13.8994141c0-1.008789.8164062-1.8300781 1.8193359-1.8300781h10.7402344c1.0039063 0 1.8203125.8212891 1.8203125 1.8300781v7.6279297c-3.2084293.2376614-5.8105469 2.9639339-5.8105469 6.2714844 0 .9732075.2543106 1.9670353.6171875 2.7207031h-7.3671875c-1.0029297 0-1.8193359-.8212891-1.8193359-1.8300781z" fill="#000000" fill-opacity="1" data-original-color="#000000ff" stroke="none" stroke-opacity="1"/><path d="m6.1489258 18.6064453h2.9873047c.5527344 0 1-.4472656 1-1s-.4472656-1-1-1h-2.9873047c-.5527344 0-1 .4472656-1 1s.4472656 1 1 1z" fill="#000000" fill-opacity="1" data-original-color="#000000ff" stroke="none" stroke-opacity="1"/><path d="m6.1489258 7.8447266h8.9472656c.5527344 0 1-.4472656 1-1s-.4472656-1-1-1h-8.9472656c-.5527344 0-1 .4472656-1 1s.4472656 1 1 1z" fill="#000000" fill-opacity="1" data-original-color="#000000ff" stroke="none" stroke-opacity="1"/><path d="m6.1489258 13.2246094h4.0458984c.5527344 0 1-.4472656 1-1s-.4472656-1-1-1h-4.0458984c-.5527344 0-1 .4472656-1 1s.4472656 1 1 1z" fill="#000000" fill-opacity="1" data-original-color="#000000ff" stroke="none" stroke-opacity="1"/><path d="m17.3325195 16.7734375v2.0234375c0 .2646484.1054688.5195313.2929688.7070313l.9541016.9550781c.3906136.3906136 1.0234261.3906364 1.4140625 0 .390625-.3896484.390625-1.0234375 0-1.4140625l-.6611328-.6621094v-1.609375c0-.5527344-.4472656-1-1-1s-1.0000001.4472656-1.0000001 1z" fill="#000000" fill-opacity="1" data-original-color="#000000ff" stroke="none" stroke-opacity="1"/></g></g></svg>