<?xml version="1.0" encoding="UTF-8"?>
<svg xmlns="http://www.w3.org/2000/svg" viewBox="0 0 64 64" width="512" height="512"><g id="outline"><path d="M39,19c1.094,0,3-1.907,3-3s-1.906-3-3-3c-.8,0-4,1.6-4,3S38.2,19,39,19Zm-.07-3.977a4.32,4.32,0,0,1,1,.977,4.383,4.383,0,0,1-.981.963A8.715,8.715,0,0,1,37.294,16,9.334,9.334,0,0,1,38.93,15.023Z"/><path d="M25,19c.8,0,4-1.6,4-3s-3.2-3-4-3c-1.094,0-3,1.907-3,3S23.906,19,25,19Zm.049-3.963A8.715,8.715,0,0,1,26.706,16a9.334,9.334,0,0,1-1.636.977,4.32,4.32,0,0,1-1-.977A4.383,4.383,0,0,1,25.049,15.037Z"/><path d="M35.726,34.312l-1.019-1.019a1,1,0,0,0-1.6.26L32,35.764,30.9,33.553a1,1,0,0,0-1.6-.26l-1.019,1.019L26.9,31.553l-1.79.894,2,4a1,1,0,0,0,.735.54,1.013,1.013,0,0,0,.867-.28l1.019-1.019,1.379,2.759a1,1,0,0,0,1.79,0l1.379-2.759,1.019,1.019a1,1,0,0,0,1.6-.26l2-4-1.79-.894Z"/><path d="M31,21.736V23a2,2,0,0,1-2,2H26v2h3a3.974,3.974,0,0,0,3-1.382A3.974,3.974,0,0,0,35,27h3V25H35a2,2,0,0,1-2-2V21.736A4.615,4.615,0,0,0,35,18a1.926,1.926,0,0,0-.531-1.425A2.918,2.918,0,0,0,32.257,16h-.514a2.9,2.9,0,0,0-2.212.576A1.926,1.926,0,0,0,29,18,4.615,4.615,0,0,0,31,21.736ZM31.728,18h.544c.226,0,.54,0,.728.018-.01.819-.682,1.94-1,1.983-.321-.043-.993-1.164-1-1.983A7.092,7.092,0,0,1,31.728,18Z"/><path d="M17.25,19.877a22.276,22.276,0,0,0-3.644,1.2l.788,1.838a19.881,19.881,0,0,1,2.948-1l.991,1.981A8.1,8.1,0,0,0,15.2,26.4l1.6,1.2a6.154,6.154,0,0,1,2.493-1.929.952.952,0,0,0,.107.129l3.1,2.324c-.141.113-.293.23-.443.347a13.987,13.987,0,0,0-3.772,4.014C15.865,36.516,16.947,47.658,19.47,54h-.3a4.089,4.089,0,0,0-4.165,3.787A3.97,3.97,0,0,0,16.1,60.754,4.017,4.017,0,0,0,19,62H45.03A5.977,5.977,0,0,0,51,56.03V53.97a5.978,5.978,0,0,0-4.838-5.859c.855-6.239,1.405-12.711-.327-15.622a23.312,23.312,0,0,0-3.442-4.467l2.314-2.315c.01-.01.015-.023.024-.033A6.185,6.185,0,0,1,47.2,27.6l1.6-1.2a8.1,8.1,0,0,0-3.133-2.5l.992-1.983a20.048,20.048,0,0,1,2.947,1l.788-1.838a22.159,22.159,0,0,0-3.644-1.2l-.75-3V13.283c4.031-6.259,1.985-10.548,1.9-10.73a1,1,0,0,0-1.059-.539C41.8,2.852,39.369,5.051,38.526,6H25.474c-.843-.949-3.277-3.148-8.31-3.986a1,1,0,0,0-1.059.539c-.09.182-2.136,4.471,1.895,10.73v3.594ZM45.51,52.584c.122-.809.247-1.644.37-2.487A3.974,3.974,0,0,1,49,53.97v2.06A3.975,3.975,0,0,1,45.03,60H19a2,2,0,0,1-2-2.109A2.118,2.118,0,0,1,19.17,56H46V54h-.7C45.366,53.543,45.436,53.072,45.51,52.584Zm.821-48.44c.281,1.175.492,3.748-1.516,7.257L40.378,6.964A12.288,12.288,0,0,1,46.331,4.144ZM25.414,8H27v4h2V8h2v6h2V8h2v4h2V8h1.586L44,13.414V17a1,1,0,0,0,.03.243l.562,2.247a15.206,15.206,0,0,0-6.963.581l.742,1.858a13.572,13.572,0,0,1,6.254-.415l-.865,1.729a13.608,13.608,0,0,0-4.924-.229l.328,1.972a11.882,11.882,0,0,1,3.383.053l-2.254,2.254a1,1,0,0,0-.032,1.38c.185.2.383.412.593.633a21.805,21.805,0,0,1,3.262,4.205c1.789,3.008.361,12.5-.584,18.776-.09.592-.176,1.165-.257,1.713H39.061L40,38.059l-2-.118L37.057,54H33V42H31V54H26.89l-1.9-16.117-1.986.234L24.875,54H21.633C18.992,48.134,18.04,36.779,20,33.515a12.062,12.062,0,0,1,3.282-3.463,5.611,5.611,0,0,0,1.6-1.573A1,1,0,0,0,24.6,27.2l-2.92-2.19a11.988,11.988,0,0,1,3.158-.023l.326-1.973a13.66,13.66,0,0,0-4.924.229l-.862-1.723a13.817,13.817,0,0,1,6.254.41l.739-1.859a15.184,15.184,0,0,0-6.963-.581l.562-2.247A1,1,0,0,0,20,17V13.414ZM17.668,4.144a12.293,12.293,0,0,1,5.954,2.82L19.185,11.4C17.175,7.888,17.389,5.314,17.668,4.144Z"/></g></svg>
