<?xml version="1.0"?>
<svg xmlns="http://www.w3.org/2000/svg" viewBox="0 0 64 64" width="512" height="512"><g id="_03-labrador_retrievers" data-name="03-labrador retrievers"><path d="M52,64H12a1,1,0,0,1-1-1V56l.615-6.811a26.922,26.922,0,0,1,2.217-8.522l2.23-6.015a1.011,1.011,0,0,1,.231-.359l1-1,1.414,1.414-.846.846-2.178,5.869a25.075,25.075,0,0,0-2.076,7.948L13,56.09,13,62H51V56l-.607-6.63a24.934,24.934,0,0,0-2.052-7.89l-2.2-5.927-.846-.846,1.414-1.414,1,1a1,1,0,0,1,.23.359l2.255,6.074a26.77,26.77,0,0,1,2.193,8.462L53,55.91,53,63A1,1,0,0,1,52,64Z"/><path d="M41,21c-1.682,0-3-1.757-3-4s1.318-4,3-4,3,1.757,3,4S42.682,21,41,21Zm0-6c-.408,0-1,.779-1,2s.592,2,1,2,1-.779,1-2S41.408,15,41,15Z"/><path d="M23,21c-1.682,0-3-1.757-3-4s1.318-4,3-4,3,1.757,3,4S24.682,21,23,21Zm0-6c-.408,0-1,.779-1,2s.592,2,1,2,1-.779,1-2S23.408,15,23,15Z"/><path d="M32,34a1,1,0,0,1-.416-.09L28.19,32.358A3.928,3.928,0,0,1,26,28.738a3.989,3.989,0,0,1,1.669-3.326,7.348,7.348,0,0,1,8.662,0A3.989,3.989,0,0,1,38,28.738a3.929,3.929,0,0,1-2.189,3.62l-3.4,1.552A1,1,0,0,1,32,34Zm0-8a5.766,5.766,0,0,0-3.2,1.063,2.024,2.024,0,0,0-.8,1.675,1.96,1.96,0,0,0,1.021,1.8L32,31.9l2.979-1.361A1.96,1.96,0,0,0,36,28.738a2.024,2.024,0,0,0-.8-1.675A5.763,5.763,0,0,0,32,26Z"/><path d="M39.2,40A9.57,9.57,0,0,1,32,36.646,9.57,9.57,0,0,1,24.8,40c-3.74,0-5.8-2.486-5.8-7V29a1,1,0,0,1,.15-.527l7.2-11.6A7,7,0,0,1,37.6,16.8l7.25,11.673A1,1,0,0,1,45,29v4C45,37.514,42.94,40,39.2,40ZM33,34.7A7.745,7.745,0,0,0,39.2,38c.94,0,3.8,0,3.8-5V29.285L35.95,17.927A5.006,5.006,0,0,0,28,18L21,29.285V33c0,5,2.86,5,3.8,5A7.743,7.743,0,0,0,31,34.7V33a1,1,0,0,1,2,0Z"/><path d="M44.447,35.9l-.894-1.79,1.762-.881L49,27.7V15.259L44.244,6.7,40.461,4.176A6.982,6.982,0,0,0,36.578,3H32V1h4.578A8.969,8.969,0,0,1,41.57,2.512l3.985,2.656a1,1,0,0,1,.319.346l5,9A1,1,0,0,1,51,15V28a1.006,1.006,0,0,1-.168.555l-4,6a1.01,1.01,0,0,1-.385.34Z"/><path d="M55,20H53V17.125a7.02,7.02,0,0,0-.922-3.474L46.859,4.519A5.01,5.01,0,0,0,42.518,2h-.1L40.707,3.707,39.293,2.293l2-2A1,1,0,0,1,42,0h.518A7.017,7.017,0,0,1,48.6,3.527l5.218,9.132A9.015,9.015,0,0,1,55,17.125Z"/><path d="M55,31a1,1,0,0,1-.371-.071l-3-1.2.743-1.857,2.2.88,6.02-10.321A3,3,0,0,0,61,16.918V15.77a3.009,3.009,0,0,0-.982-2.221l-9.5-8.64L46.757,3.97l.486-1.94,4,1a1,1,0,0,1,.43.23l9.691,8.81A5.011,5.011,0,0,1,63,15.77v1.148a5,5,0,0,1-.681,2.52L55.864,30.5A1,1,0,0,1,55,31Z"/><path d="M19.553,35.9l-2-1a1.01,1.01,0,0,1-.385-.34l-4-6A1.006,1.006,0,0,1,13,28V15a1,1,0,0,1,.126-.486l5-9a.989.989,0,0,1,.319-.346L22.43,2.512A8.969,8.969,0,0,1,27.422,1H32V3H27.422a6.982,6.982,0,0,0-3.883,1.176L19.756,6.7,15,15.259V27.7l3.685,5.527,1.762.881Z"/><path d="M11,20H9V17.125a9.015,9.015,0,0,1,1.186-4.466L15.4,3.527A7.017,7.017,0,0,1,21.482,0H22a1,1,0,0,1,.707.293l2,2L23.293,3.707,21.586,2h-.1a5.01,5.01,0,0,0-4.341,2.519l-5.219,9.132A7.02,7.02,0,0,0,11,17.125Z"/><path d="M9,31a1,1,0,0,1-.864-.5L1.681,19.438A5,5,0,0,1,1,16.918V15.77a5.011,5.011,0,0,1,1.636-3.7l9.691-8.81a1,1,0,0,1,.43-.23l4-1,.486,1.94-3.757.939-9.5,8.64A3.009,3.009,0,0,0,3,15.77v1.148a3,3,0,0,0,.409,1.512l6.02,10.321,2.2-.879.743,1.857-3,1.2A1.011,1.011,0,0,1,9,31Z"/><path d="M32,61a1,1,0,0,1-.821-.429l-8.349-12,1.642-1.143L32,58.249l15.179-21.82,1.642,1.142-16,23A1,1,0,0,1,32,61Z"/><rect x="20.564" y="43.784" width="2" height="2.429" transform="matrix(0.821, -0.571, 0.571, 0.821, -21.838, 20.378)"/><rect x="16.738" y="36.455" width="2" height="6.088" transform="translate(-19.38 17.204) rotate(-34.824)"/><path d="M32,41c-2.851,0-5-1.29-5-3h2c0,.249,1.064,1,3,1a4.4,4.4,0,0,0,3.009-1.059L37,38C37,39.932,34.043,41,32,41Z"/></g></svg>
