<?xml version="1.0" standalone="no"?>
<svg version="1.0" xmlns="http://www.w3.org/2000/svg"
    width="344.000000pt" height="374.000000pt" viewBox="0 0 344.000000 374.000000"
    preserveAspectRatio="xMidYMid meet">

    <g transform="translate(0.000000,374.000000) scale(0.100000,-0.100000)"
        fill="#F6C8E1" stroke="none">
        <path d="M1495 3184 c-532 -94 -952 -452 -1128 -960 -59 -171 -72 -255 -71
-464 0 -208 19 -327 75 -487 182 -516 670 -854 1154 -801 387 42 637 304 674
706 7 79 11 92 43 134 43 56 68 117 76 189 7 51 8 53 52 68 63 23 162 119 199
192 80 161 62 335 -47 446 -40 41 -146 103 -176 103 -10 0 -17 15 -21 48 -15
108 -57 188 -133 250 -120 97 -269 114 -406 45 l-50 -25 -52 26 c-101 51 -221
54 -322 8 -109 -49 -194 -165 -210 -286 l-7 -59 -52 -18 c-222 -75 -304 -311
-187 -541 46 -90 143 -178 225 -202 11 -3 19 -21 23 -53 12 -80 34 -136 76
-187 22 -26 40 -54 40 -61 0 -7 -5 -59 -10 -116 -14 -137 -44 -257 -87 -346
-37 -75 -39 -109 -10 -127 72 -45 173 237 193 540 l7 102 -42 44 c-53 59 -73
108 -75 188 -1 36 -5 71 -9 77 -4 7 -24 15 -45 19 -123 22 -231 154 -249 305
-7 60 18 144 57 191 35 42 120 88 165 88 17 0 41 7 53 16 19 13 22 24 22 78 0
87 23 148 79 205 96 99 265 109 366 21 36 -30 51 -30 106 6 103 66 192 72 290
21 105 -54 149 -129 149 -253 0 -72 7 -80 80 -94 94 -18 169 -76 201 -155 6
-17 12 -64 12 -106 0 -61 -6 -88 -26 -132 -46 -101 -131 -175 -219 -191 -21
-4 -40 -11 -44 -17 -3 -5 -7 -42 -8 -82 -4 -87 -20 -129 -73 -183 -40 -41 -40
-41 -46 -140 -22 -373 -264 -629 -612 -651 -414 -26 -828 244 -1005 655 -95
219 -133 518 -95 747 57 354 239 655 530 875 155 117 330 198 525 241 145 33
428 34 566 2 201 -47 370 -126 534 -249 276 -208 449 -486 516 -830 25 -125
25 -379 1 -493 -62 -288 -178 -505 -376 -701 -222 -220 -462 -341 -764 -385
-62 -9 -118 -21 -124 -27 -20 -17 -15 -56 8 -69 31 -16 140 -4 274 31 546 141
943 557 1067 1118 31 140 31 412 -1 562 -42 196 -115 374 -222 533 -163 244
-453 463 -735 557 -200 66 -501 89 -699 54z"/>
        <path d="M2586 2559 c-13 -30 -29 -46 -62 -62 -24 -11 -44 -24 -44 -29 0 -4
18 -17 41 -28 22 -12 48 -35 57 -51 36 -66 39 -67 55 -28 15 37 69 89 92 89
31 0 23 20 -14 40 -26 13 -50 36 -67 65 -14 25 -29 45 -33 45 -4 0 -15 -18
-25 -41z"/>
        <path d="M1429 2468 c-103 -59 -106 -223 -5 -334 37 -41 47 -47 93 -51 67 -7
106 19 140 94 21 46 25 66 22 132 -3 67 -8 83 -32 114 -15 20 -41 44 -57 52
-42 22 -118 19 -161 -7z"/>
        <path d="M1869 2467 c-19 -12 -44 -42 -57 -67 -20 -38 -23 -56 -19 -120 8
-155 92 -233 200 -186 83 36 132 133 128 258 -1 42 -44 98 -92 124 -43 22
-120 18 -160 -9z"/>
        <path d="M1155 2105 c-107 -37 -133 -143 -64 -263 35 -62 79 -92 134 -92 51 0
82 22 106 74 25 54 25 158 1 205 -33 67 -109 99 -177 76z"/>
        <path d="M2240 2113 c-38 -7 -90 -51 -106 -89 -20 -48 -17 -150 5 -200 24 -53
55 -74 107 -74 84 0 161 89 171 197 4 49 2 63 -19 92 -37 55 -101 85 -158 74z"/>
        <path d="M1620 1953 c-79 -39 -162 -129 -210 -226 -86 -175 -70 -295 44 -330
28 -8 120 -12 286 -12 231 0 248 1 292 22 66 30 91 72 85 143 -6 73 -39 161
-83 229 -118 178 -274 244 -414 174z"/>
        <path d="M640 1906 c-13 -40 -43 -69 -89 -88 l-34 -13 52 -33 c35 -21 57 -43
67 -67 18 -44 30 -44 47 -2 17 38 41 62 80 76 36 14 34 28 -8 45 -23 10 -46
32 -67 66 -17 27 -32 50 -34 50 -1 0 -7 -15 -14 -34z"/>
        <path d="M939 1283 c-14 -38 -48 -73 -86 -89 -41 -18 -41 -28 -3 -44 34 -14
90 -73 90 -95 0 -8 7 -15 15 -15 8 0 15 6 15 14 0 23 51 78 87 92 42 18 42 30
-1 48 -32 14 -86 72 -86 94 0 25 -21 21 -31 -5z"/>
        <path d="M2572 1221 c-12 -35 -47 -69 -89 -87 -40 -17 -42 -29 -5 -42 36 -12
90 -66 94 -94 5 -35 25 -32 37 5 13 39 44 71 84 86 36 14 34 28 -8 45 -23 10
-46 32 -67 66 -17 27 -32 50 -34 50 -1 0 -7 -13 -12 -29z"/>
    </g>
</svg>