<svg id="Layer_1" enable-background="new 0 0 512 512" viewBox="0 0 512 512" xmlns="http://www.w3.org/2000/svg" xmlns:xlink="http://www.w3.org/1999/xlink"><linearGradient id="SVGID_1_" gradientUnits="userSpaceOnUse" x1="80.31" x2="431.189" y1="445.795" y2="94.915"><stop offset="0" stop-color="#c61d91"/><stop offset="1" stop-color="#6e13c9"/></linearGradient><path d="m107.33 267.14c10.6-14.72 16.44-33.99 16.44-54.26s-5.84-39.54-16.44-54.26c-11.5-15.97-27.89-25.13-44.95-25.13s-33.44 9.16-44.95 25.13c-10.59 14.72-16.43 33.99-16.43 54.26s5.84 39.54 16.44 54.26c11.5 15.97 27.89 25.13 44.95 25.13s33.44-9.16 44.94-25.13zm-44.94-4.87c-16.72 0-31.39-23.08-31.39-49.39s14.67-49.39 31.39-49.39 31.39 23.08 31.39 49.39-14.67 49.39-31.39 49.39zm119.36-67.94c17.09 0 33.48-9.15 44.97-25.09 10.59-14.69 16.42-33.98 16.42-54.3s-5.83-39.6-16.42-54.3c-11.49-15.94-27.88-25.09-44.97-25.09s-33.48 9.15-44.97 25.09c-10.59 14.69-16.42 33.98-16.42 54.3s5.83 39.6 16.42 54.3c11.48 15.95 27.87 25.09 44.97 25.09zm0-128.77c17.01 0 31.39 22.62 31.39 49.39s-14.37 49.39-31.39 49.39-31.39-22.62-31.39-49.39 14.37-49.39 31.39-49.39zm150.24 127.87c17.09 0 33.48-9.14 44.97-25.09 10.59-14.69 16.42-33.98 16.42-54.3s-5.83-39.6-16.42-54.3c-11.49-15.95-27.88-25.09-44.97-25.09s-33.48 9.14-44.97 25.09c-10.59 14.69-16.42 33.98-16.42 54.3s5.83 39.6 16.42 54.3c11.48 15.95 27.87 25.09 44.97 25.09zm0-128.77c17.01 0 31.39 22.62 31.39 49.39s-14.37 49.39-31.39 49.39-31.39-22.62-31.39-49.39 14.37-49.39 31.39-49.39zm162.57 94.92c-11.5-15.97-27.89-25.13-44.95-25.13s-33.44 9.16-44.95 25.13c-10.6 14.72-16.44 33.99-16.44 54.26s5.84 39.54 16.44 54.26c11.5 15.97 27.89 25.13 44.95 25.13s33.44-9.16 44.95-25.13c10.6-14.72 16.44-33.99 16.44-54.26s-5.84-39.55-16.44-54.26zm-44.95 103.64c-16.72 0-31.39-23.08-31.39-49.39s14.67-49.39 31.39-49.39 31.39 23.09 31.39 49.4-14.67 49.38-31.39 49.38zm-136.81-44.95c-14.37-17.67-34.01-27.01-56.79-27.01s-42.42 9.34-56.79 27.01l-113.28 139.25c-18.27 22.47-21.76 51.49-9.32 77.64 12.51 26.31 35.54 42.18 60.17 42.18 2.66 0 5.34-.19 8.03-.56 72.85-10.24 145.63-10.23 222.47.01 2.58.34 5.15.51 7.7.51 24.77 0 47.9-15.89 60.39-42.15 12.44-26.15 8.95-55.18-9.32-77.64zm95.49 204c-6.13 12.89-19.51 27.1-37.04 24.78-79.58-10.61-155.02-10.61-230.61.01-17.39 2.44-30.77-11.83-36.93-24.8-7.34-15.43-5.28-32.56 5.5-45.83l113.27-139.23c8.6-10.58 19.88-15.94 33.52-15.94s24.92 5.36 33.52 15.94l113.27 139.25c10.79 13.26 12.84 30.39 5.5 45.82z" fill="url(#SVGID_1_)"/></svg>