<svg id="Layer_1" height="512" viewBox="0 0 64 64" width="512" xmlns="http://www.w3.org/2000/svg" data-name="Layer 1"><path d="m10 41v20a1 1 0 0 0 1 1h43a1 1 0 0 0 1-1v-20z" fill="#cfd9e6"/><g fill="#91b8f2"><path d="m33 54h-2a4 4 0 0 0 -4 4v4h10v-4a4 4 0 0 0 -4-4z"/><path d="m17 45h4v4h-4z"/><path d="m30 45h4v4h-4z"/><path d="m44 45h4v4h-4z"/><path d="m44 54h4v4h-4z"/><path d="m17 54h4v4h-4z"/></g><path d="m57 30h-49l-3 11h54z" fill="#5a8dcc"/><rect fill="#91b8f2" height="34" rx="1.951" width="39" x="13" y="2"/><path d="m32.625 9.63326c-3.76254-7.42562-16.625-5.69014-16.625 3.51974 0 8.819 11.776 18.47249 16.625 19.847 5.54167-1.37451 16.625-11.028 16.625-19.847 0-9.20988-12.86246-10.94536-16.625-3.51974z" fill="#e06071"/><path d="m33.31769 24.06561v8.72589c3.41131-1.15747 8.41528-4.9068 11.90393-9.543l-.12787-.55744-1.38544-2.06177v-2.749l2.4245-1.37451-.6098-3.73969a.68927.68927 0 0 0 -.45825-.508l-2.74182-.90674h-6.23438l-2.74182.90674a.68935.68935 0 0 0 -.45831.508l-.6098 3.73969 2.42449 1.37451v2.749z" fill="#cedde6"/><path d="m29.85419 25.44019-1.38544-2.74909 1.23914-2.4588a9.53731 9.53731 0 0 0 .1463-1.66473v-4.8108l-2.07813 1.37452h-4.849l-2.07812-1.37452v6.18531l-1.38538 2.06177-.08276.11944a35.56727 35.56727 0 0 0 10.32287 9.53516l.15052-.033z" fill="#9bc"/><path d="m32.35211 33.96191a1 1 0 0 0 .51367.00879c5.79786-1.43847 17.38428-11.4477 17.38428-20.81787a8.83966 8.83966 0 0 0 -7.11182-8.85449 10.27095 10.27095 0 0 0 -10.51318 3.45066 10.26824 10.26824 0 0 0 -10.51318-3.45066 8.83966 8.83966 0 0 0 -7.11182 8.85449c0 9.55762 12.34766 19.39063 17.35205 20.80908zm1.96582-2.651v-7.05163l1.3125-3.25586a.99432.99432 0 0 0 .07276-.374v-2.749a1.00028 1.00028 0 0 0 -.50684-.87012l-1.81885-1.03081.46094-2.83056 2.41113-.79737h5.91211l2.41065.79688.46142 2.831-1.81836 1.03076a1.00029 1.00029 0 0 0 -.50683.87012v2.749a.99831.99831 0 0 0 .16992.55762l1.25043 1.86084a29.97577 29.97577 0 0 1 -9.81098 8.26313zm-14.46875-17.55407v5.88037l-.45245.67321a13.99205 13.99205 0 0 1 -2.39667-7.15759 6.91363 6.91363 0 0 1 5.57666-6.90918 8.97967 8.97967 0 0 1 2.07666-.24023 7.69261 7.69261 0 0 1 7.07959 4.082 1.04161 1.04161 0 0 0 1.78418 0c1.87158-3.69531 6.05762-4.582 9.15625-3.8418a6.91363 6.91363 0 0 1 5.57666 6.90918 15.36922 15.36922 0 0 1 -2.87756 8.15991l-.66394-.988v-1.86182l1.91744-1.08689a1.00031 1.00031 0 0 0 .49365-1.03125l-.61914-3.78955a1.69373 1.69373 0 0 0 -1.12158-1.2461l-2.74219-.90674a.99472.99472 0 0 0 -.314-.05078h-6.2343a.99246.99246 0 0 0 -.314.05078l-2.74122.90625a1.71277 1.71277 0 0 0 -1.1313 1.29639l-.60987 3.73975a1.00032 1.00032 0 0 0 .49366 1.03125l1.91748 1.08691v1.97266l-1.3125 3.25586a.99427.99427 0 0 0 -.07276.374v7.77582a12.6543 12.6543 0 0 1 -1.46387-.67823v-5.72308a1.00141 1.00141 0 0 0 -.10693-.45019l-1.15869-2.29883 1.0127-2.0083a7.51488 7.51488 0 0 0 .25292-2.11524v-4.81054a.99987.99987 0 0 0 -1.55175-.834l-1.82715 1.2085h-4.24707l-1.82715-1.2085a.99988.99988 0 0 0 -1.55176.834zm1.83008 6.74267a.99831.99831 0 0 0 .16992-.55762v-4.3247l.52637.34814a.99859.99859 0 0 0 .55176.166h4.84863a.99862.99862 0 0 0 .55176-.166l.52636-.34814v2.95019c0 .22559-.0415 1.0293-.08447 1.30469l-1.19385 2.36865a1.00119 1.00119 0 0 0 0 .90039l1.27832 2.53662v4.2696a35.6636 35.6636 0 0 1 -8.24487-7.85559z"/><path d="m50.04938 1h-35.09864a2.9541 2.9541 0 0 0 -2.95068 2.95068v25.04932h-4a.99984.99984 0 0 0 -.96484.73682l-3 11a.99991.99991 0 0 0 .96484 1.26318h4v19a2.002 2.002 0 0 0 2 2h43a2.002 2.002 0 0 0 2-2v-19h3a1.00037 1.00037 0 0 0 .98389-1.17871l-2-11a1 1 0 0 0 -.98389-.82129h-4v-25.04932a2.9541 2.9541 0 0 0 -2.95068-2.95068zm-36.04932 2.95068a.9515.9515 0 0 1 .95068-.95068h35.09864a.9515.9515 0 0 1 .95068.95068v30.09864a.9515.9515 0 0 1 -.95068.95068h-35.09864a.9515.9515 0 0 1 -.95068-.95068zm17 57.04932h-3v-3a3.00328 3.00328 0 0 1 3-3zm5 0h-3v-6a3.00328 3.00328 0 0 1 3 3zm18 0h-16v-3a5.00588 5.00588 0 0 0 -5-5h-2a5.00589 5.00589 0 0 0 -5 5v3h-15v-19h43zm2.16553-30 1.63623 9h-51.49268l2.45459-9h3.23633v3.04932a2.9541 2.9541 0 0 0 2.95068 2.95068h35.09864a2.9541 2.9541 0 0 0 2.95068-2.95068v-3.04932z"/><path d="m17.00006 50h4a1 1 0 0 0 1-1v-4a1 1 0 0 0 -1-1h-4a1 1 0 0 0 -1 1v4a1 1 0 0 0 1 1zm1-4h2v2h-2z"/><path d="m30.00006 50h4a1 1 0 0 0 1-1v-4a1 1 0 0 0 -1-1h-4a1 1 0 0 0 -1 1v4a1 1 0 0 0 1 1zm1-4h2v2h-2z"/><path d="m44.00006 50h4a1 1 0 0 0 1-1v-4a1 1 0 0 0 -1-1h-4a1 1 0 0 0 -1 1v4a1 1 0 0 0 1 1zm1-4h2v2h-2z"/><path d="m44.00006 59h4a1 1 0 0 0 1-1v-4a1 1 0 0 0 -1-1h-4a1 1 0 0 0 -1 1v4a1 1 0 0 0 1 1zm1-4h2v2h-2z"/><path d="m17.00006 59h4a1 1 0 0 0 1-1v-4a1 1 0 0 0 -1-1h-4a1 1 0 0 0 -1 1v4a1 1 0 0 0 1 1zm1-4h2v2h-2z"/><circle cx="23.5" cy="18.464" r=".75"/><circle cx="27.209" cy="18.464" r=".75"/><circle cx="36.75" cy="16.108" r=".75"/><circle cx="41.5" cy="16.108" r=".75"/><path d="m39.38147 18.5h-.42883a.7684.7684 0 0 0 -.78559.74994v.00006a.76841.76841 0 0 0 .78559.75h.42883a.7684.7684 0 0 0 .78558-.75v-.00006a.76839.76839 0 0 0 -.78558-.74994z"/></svg>