<svg width="39" height="16" viewBox="0 0 39 16" fill="none" xmlns="http://www.w3.org/2000/svg">
<path d="M21.1437 1.44241e-09C16.9594 -8.11007e-05 13.5673 3.41992 13.5673 7.63875C13.5673 11.8576 16.9594 15.2776 21.1437 15.2775C23.2055 15.2774 25.0736 14.4461 26.4396 13.099C26.5824 12.9588 26.5506 12.6992 26.4396 12.587L24.8831 11.0131C24.7325 10.8608 24.4875 10.8955 24.4085 10.9737C23.6172 11.7584 22.5472 12.2398 21.3696 12.2397C18.9325 12.2397 16.9569 10.177 16.957 7.63284C16.957 5.09872 18.9177 3.04047 21.3452 3.02633C21.3533 3.02631 21.3614 3.02631 21.3696 3.02633C22.5149 3.02628 23.5584 3.48166 24.3427 4.22851C24.4335 4.3149 24.6601 4.30296 24.7932 4.1682L26.3316 2.61129C26.4047 2.5373 26.5431 2.29011 26.3864 2.12726C25.0253 0.810639 23.179 6.64249e-05 21.1437 1.44241e-09ZM5.61202 0.374055C5.50043 0.383794 5.26068 0.450815 5.12681 0.830094C4.94833 1.3358 0.0800382 14.3556 0.0800382 14.3556C0.0800382 14.3556 -0.167874 14.8699 0.208927 14.8699H3.02478C3.02478 14.8699 3.33035 14.8538 3.50092 14.3256L4.39447 11.559H9.57684L10.4913 14.4249C10.4913 14.4249 10.6006 14.8699 11.0171 14.8699H13.9819C13.9819 14.8699 14.2993 14.851 14.101 14.4048C13.9026 13.9586 9.10307 0.770577 9.10307 0.770577C9.10307 0.770577 9.02403 0.374055 8.48857 0.374055H5.67233C5.67233 0.374055 5.64922 0.3708 5.61202 0.374055ZM27.8929 0.374055C27.8929 0.374055 27.5429 0.362929 27.5429 0.736284V14.5113C27.5429 14.5113 27.5433 14.8699 27.8854 14.8699H33.6641C33.6641 14.8699 36.262 14.8767 37.6309 13.5077C38.9999 12.1388 38.6266 10.101 38.6266 10.101C38.6266 10.101 38.3 7.76754 35.7177 7.1764C35.7177 7.1764 38.0357 6.52317 37.8879 3.80085C37.6697 1.41761 35.5185 0.374055 33.2834 0.374055H27.8929ZM30.732 2.90651H32.8553C32.8553 2.90651 34.6443 2.90643 34.6676 4.56315C34.691 6.21988 32.793 6.18116 32.793 6.18116H30.732V2.90651ZM7.00103 3.4875L8.76054 9.00095H5.22063L7.00103 3.4875ZM30.732 8.56896H33.1356C33.1356 8.56896 35.321 8.58424 35.3365 10.4743C35.3521 12.3644 33.2365 12.3647 33.2365 12.3647H30.732V8.56896Z" fill="#1F419B"/>
<path d="M24.0908 7.62994C24.0908 7.97193 24.0235 8.31057 23.8926 8.62652C23.7617 8.94248 23.5699 9.22956 23.3281 9.47138C23.0862 9.7132 22.7992 9.90502 22.4832 10.0359C22.1673 10.1668 21.8286 10.2341 21.4866 10.2341C21.1446 10.2341 20.806 10.1668 20.4901 10.0359C20.1741 9.90502 19.887 9.7132 19.6452 9.47138C19.4034 9.22956 19.2115 8.94248 19.0807 8.62652C18.9498 8.31057 18.8824 7.97193 18.8824 7.62994C18.8824 7.28796 18.9498 6.94932 19.0807 6.63336C19.2116 6.31741 19.4034 6.03033 19.6452 5.78851C19.887 5.54668 20.1741 5.35486 20.4901 5.22399C20.806 5.09312 21.1446 5.02576 21.4866 5.02576C21.8286 5.02576 22.1673 5.09312 22.4832 5.22399C22.7992 5.35486 23.0862 5.54668 23.3281 5.7885C23.5699 6.03033 23.7617 6.31741 23.8926 6.63336C24.0235 6.94932 24.0908 7.28796 24.0908 7.62994Z" fill="#00AEEF"/>
</svg>
