<svg width="40" height="39" viewBox="0 0 40 39" fill="none" xmlns="http://www.w3.org/2000/svg">
<path fill-rule="evenodd" clip-rule="evenodd" d="M14.3967 0.488953C11.5913 1.05309 10.5545 2.33384 10.6612 4.16347C10.7984 6.74021 13.6344 11.6497 14.9913 13.8301C17.3546 17.657 20.1601 21.1029 23.2705 24.2895C25.7862 26.7747 27.3719 27.3236 30.0706 23.6491C32.3729 20.615 34.4922 17.6113 36.3066 13.8453C37.0995 12.1986 37.8466 10.3995 38.5022 8.37164C39.2036 6.00836 38.9596 3.91952 36.6421 2.39482C38.8681 3.47736 39.8439 5.47471 39.9811 7.68552C40.1184 9.8201 39.478 12.1376 38.9901 13.8453C37.7856 18.0992 36.2304 22.3836 34.2635 26.2411C32.7846 29.1533 30.8939 32.6601 29.0033 35.2521C24.8257 41.0002 20.8309 39.14 16.1349 35.2521C13.1617 32.782 10.2953 29.6717 7.84053 26.2563C5.35527 22.8258 2.62606 17.7333 1.00988 13.8148C-1.20093 8.46312 0.521977 5.71867 3.25118 3.98051C6.25484 2.07464 10.7527 0.992103 14.3967 0.488953Z" fill="url(#paint0_linear_203_28)"/>
<path fill-rule="evenodd" clip-rule="evenodd" d="M14.29 12.7017C18.6354 12.0461 29.9334 11.3447 33.8976 13.403C35.2241 14.0892 35.2546 15.0192 35.1326 16.0713C35.529 15.3547 35.9102 14.6076 36.2914 13.8452C37.0842 12.1985 37.8313 10.3994 38.4869 8.37154C39.1883 6.00826 38.9444 3.91943 36.6268 2.39473C35.773 1.93732 34.7819 1.61713 33.8976 1.35793C31.2904 0.595585 28.3935 0.290645 25.4813 0.0771878C24.2768 -0.014294 23.0265 0.000952935 21.7458 0.000952935C19.4435 0.000952935 16.9125 0.153423 14.3967 0.488856C11.5913 1.05299 10.5545 2.33374 10.6612 4.16338C10.7832 6.35894 12.8568 10.2469 14.3052 12.7017H14.29Z" fill="url(#paint1_linear_203_28)"/>
<defs>
<linearGradient id="paint0_linear_203_28" x1="35.1174" y1="24.9603" x2="3.22069" y2="2.62353" gradientUnits="userSpaceOnUse">
<stop stop-color="#006840"/>
<stop offset="0.4" stop-color="#007A48"/>
<stop offset="1" stop-color="#86C440"/>
</linearGradient>
<linearGradient id="paint1_linear_203_28" x1="15.1133" y1="0.290645" x2="33.9891" y2="13.5098" gradientUnits="userSpaceOnUse">
<stop stop-color="#006840"/>
<stop offset="0.3" stop-color="#007A48"/>
<stop offset="1" stop-color="#86C440"/>
</linearGradient>
</defs>
</svg>
