<svg width="40" height="34" viewBox="0 0 40 34" fill="none" xmlns="http://www.w3.org/2000/svg">
<path d="M39.365 12.4263H34.784C32.1261 12.4263 29.6051 13.5851 27.8692 15.6032L20.6302 24.0147V33.6249C22.964 33.2964 24.1885 31.726 24.1885 31.726L39.8332 13.4876C40.2042 13.0797 39.916 12.4299 39.365 12.4299" fill="#E10600"/>
<path d="M0.634966 12.4263H5.21602C7.87389 12.4263 10.3949 13.5851 12.1308 15.6032L19.3697 24.0147V33.6249C17.036 33.2964 15.8115 31.726 15.8115 31.726L0.166777 13.4876C-0.204173 13.0797 0.0839434 12.4299 0.634966 12.4299" fill="#E10600"/>
<path d="M29.2485 0.62485V9.9931C29.2485 11.3216 28.7731 12.6068 27.9052 13.6141L20.6302 22.0689V8.96061L28.1573 0.216906C28.5354 -0.219918 29.2521 0.0472308 29.2521 0.62485" fill="#E10600"/>
<path d="M10.7515 0.62485V9.9931C10.7515 11.3216 11.2269 12.6068 12.0948 13.6141L19.3698 22.0689V8.96061L11.8427 0.216906C11.4646 -0.219918 10.7479 0.0472308 10.7479 0.62485" fill="#E10600"/>
</svg>
